<?xml version="1.0" encoding="utf-8"?>
<!-- Generator: Adobe Illustrator 25.4.1, SVG Export Plug-In . SVG Version: 6.00 Build 0)  -->
<svg version="1.1" id="Layer_1" xmlns="http://www.w3.org/2000/svg" xmlns:xlink="http://www.w3.org/1999/xlink" x="0px" y="0px"
	 viewBox="0 0 512 420" style="enable-background:new 0 0 512 420;" xml:space="preserve">
<g>
	<g>
		<path d="M104.6,372.9l-25.9,12.2l25.9,12.2C136.5,412.4,171,420,207,420c60.4,0,117.3-21.8,160-61.5
			c42.7-39.7,66.3-92.4,66.3-148.5S409.7,101.2,367,61.5C324.2,21.8,267.4,0,207,0c-36,0-70.4,7.6-102.3,22.7L78.7,34.9l25.9,12.2
			c31.9,15,58.9,37.9,77.9,66.1c19.6,29,29.9,62.5,29.9,96.8s-10.3,67.9-29.9,96.8C163.5,335,136.6,357.9,104.6,372.9z"/>
	</g>
</g>
</svg>
